PathFileType	4	(x/y/z)	S08_PSF_T11
DataRate	CameraRate	NumFrames	NumMarkers	Units	OrigDataRate	OrigDataStartFrame	OrigNumFrames
240	240	8	51	mm	240	56	440
Frame#	Time	Sternum			R.Acromium			L.Acromium			Top.Head			R.ASIS			L.ASIS			R.PSIS			L.PSIS			R.Great.Tro			L.Great.Tro			R.Iliac.Crest			L.Iliac.Crest			V.Sacral			R.Thigh.Upper.Post			R.Thigh.Lower.Ant			R.Thigh.Lower.Post			R.Thigh.Upper.Ant			R.Knee.Lat			R.Knee.Med			R.Shank.Upper.Post			R.Shank.Lower.Ant			R.Shank.Lower.Post			R.Shank.Upper.Ant			R.Ankle.Lat			R.Ankle.Med			R.Heel.Upper			R.Heel.Med			R.Heel.Lat			R.Toe.Lat			R.Toe.Med			R.Toe.Tip			L.Thigh.Upper.Post			L.Thigh.Lower.Ant			L.Thigh.Lower.Post			L.Thigh.Upper.Ant			L.Knee.Lat			L.Knee.Med			L.Shank.Upper.Post			L.Shank.Lower.Ant			L.Shank.Lower.Post			L.Shank.Upper.Ant			L.Ankle.Lat			L.Ankle.Med			L.Heel.Upper			L.Heel.Med			L.Heel.Lat			L.Toe.Lat			L.Toe.Med			L.Toe.Tip			Cervical.Spine			Back			
		X1	Y1	Z1	X2	Y2	Z2	X3	Y3	Z3	X4	Y4	Z4	X5	Y5	Z5	X6	Y6	Z6	X7	Y7	Z7	X8	Y8	Z8	X9	Y9	Z9	X10	Y10	Z10	X11	Y11	Z11	X12	Y12	Z12	X13	Y13	Z13	X14	Y14	Z14	X15	Y15	Z15	X16	Y16	Z16	X17	Y17	Z17	X18	Y18	Z18	X19	Y19	Z19	X20	Y20	Z20	X21	Y21	Z21	X22	Y22	Z22	X23	Y23	Z23	X24	Y24	Z24	X25	Y25	Z25	X26	Y26	Z26	X27	Y27	Z27	X28	Y28	Z28	X29	Y29	Z29	X30	Y30	Z30	X31	Y31	Z31	X32	Y32	Z32	X33	Y33	Z33	X34	Y34	Z34	X35	Y35	Z35	X36	Y36	Z36	X37	Y37	Z37	X38	Y38	Z38	X39	Y39	Z39	X40	Y40	Z40	X41	Y41	Z41	X42	Y42	Z42	X43	Y43	Z43	X44	Y44	Z44	X45	Y45	Z45	X46	Y46	Z46	X47	Y47	Z47	X48	Y48	Z48	X49	Y49	Z49	X50	Y50	Z50	X51	Y51	Z51	

56	0.22917	-1172.6	1236.6	301.38	-1295.4	1474.6	475.21	-1312.2	1498.1	139.62	-1303.8	1787.4	319.16	-1195.1	1018.9	408.47	-1188.3	1030.1	176.57	NaN	NaN	NaN	NaN	NaN	NaN	-1261	903.73	474.15	-1278.3	923.16	109.25	-1296.8	1085.7	456.4	-1286	1110.4	148.56	-1410.5	1005.8	281.97	-1233.1	706.2	464.76	-1133.3	625.37	451.13	-1208.1	620.27	450.24	-1155.6	717.18	463.65	-1152.5	524.72	446.48	-1162	521.49	310.98	-1315.9	437.08	452.92	-1317.6	346.86	433.84	-1368.4	381.56	445.65	-1263.9	398.5	440.48	-1497	275.46	418.14	-1462.7	256.85	340.55	-1552	288.21	366.3	-1560.9	262.19	339.94	-1569	272.44	399.81	-1470.6	123.86	450.49	-1449.5	116.27	338.87	-1400.1	77.269	387.2	-1268.3	712.36	127.29	-1173.1	632.66	152.2	-1241.5	626.68	146.21	-1195.1	716.42	127.02	-1214.1	525.51	170.55	-1214	528.57	294.68	-1275.9	344.84	171.62	-1209.7	258.25	197.15	-1281.7	272.08	190.16	-1209.7	331.76	178.57	-1266.3	99.528	209.81	-1242.5	109.83	298.12	-1317	76.187	258.24	-1306.7	42.908	288.85	-1308.1	50.285	225.05	-1131.3	38.921	199.56	-1118.6	45.719	316.18	-1052.1	61.015	269.14	-1372.4	1530	302.48	-1413.8	1245.4	314.95
57	0.23333	-1167.7	1237.3	301.33	-1290.3	1475.2	475.09	-1307.2	1499	139.6	-1298.3	1788	319.13	-1190	1019.8	408.22	-1183.4	1030.8	176.29	NaN	NaN	NaN	NaN	NaN	NaN	-1255.5	904.72	474.18	-1273.8	923.65	109.22	-1291.8	1086.5	456.29	-1281.3	1111.1	148.47	-1405.7	1006.5	282.06	-1225.3	707.34	464.86	-1124.9	627.54	450.78	-1199.4	621.73	450.31	-1148	719.16	463.44	-1143.2	526.65	446.14	-1152.8	523.44	310.73	-1305.2	437.13	452.71	-1306.3	346.97	433.86	-1357.5	380.99	445.58	-1253.1	399.24	440.22	-1484.8	273.49	418.23	-1450.4	255.22	340.66	-1540.3	284.77	366.51	-1549	258.33	340.25	-1557.3	268.78	400.17	-1455.3	122.91	451.53	-1434.1	115.03	339.82	-1383.9	77.5	388.43	-1265	712.93	127.16	-1170.4	632.62	152.23	-1238.7	627.09	146.04	-1191.7	716.57	127.07	-1212.3	525.59	170.51	-1212.2	528.61	294.67	-1274.9	345.13	171.57	-1208.9	258.33	197.13	-1281	272.37	190.17	-1208.8	331.82	178.55	-1266	99.645	209.89	-1242.2	110	298.13	-1316.9	76.371	258.27	-1306.5	43.018	288.88	-1308.1	50.412	225.06	-1131.2	38.852	199.55	-1118.5	45.636	316.17	-1052	60.763	269.1	-1367	1530.6	302.28	-1408.8	1246.1	314.68
58	0.2375	-1162.8	1237.9	301.27	-1285.3	1475.9	474.97	-1302.1	1499.8	139.57	-1292.9	1788.6	319.1	-1184.9	1020.7	407.98	-1178.6	1031.3	176.03	NaN	NaN	NaN	NaN	NaN	NaN	-1250	905.69	474.21	-1269.3	924.1	109.2	-1286.7	1087.3	456.19	-1276.5	1111.6	148.37	-1400.8	1007.1	282.16	-1217.5	708.48	464.99	-1116.5	629.7	450.39	-1190.8	623.16	450.4	-1140.5	721.13	463.22	-1134	528.57	445.77	-1143.8	525.4	310.47	-1294.6	437.08	452.48	-1295	346.99	433.89	-1346.6	380.29	445.49	-1242.3	399.94	439.97	-1472.4	271.28	418.34	-1437.9	253.38	340.78	-1528.5	281.07	366.77	-1536.9	254.22	340.58	-1545.4	264.83	400.59	-1439.8	121.78	452.54	-1418.5	113.67	340.73	-1367.4	77.673	389.57	-1261.7	713.48	127.05	-1167.6	632.57	152.29	-1236	627.49	145.88	-1188.3	716.7	127.11	-1210.5	525.67	170.48	-1210.4	528.64	294.66	-1273.8	345.42	171.52	-1208.2	258.4	197.13	-1280.3	272.66	190.18	-1207.9	331.87	178.55	-1265.7	99.77	209.98	-1242	110.18	298.15	-1316.9	76.553	258.3	-1306.4	43.138	288.92	-1308	50.537	225.07	-1131.2	38.791	199.54	-1118.4	45.54	316.17	-1051.9	60.506	269.08	-1361.5	1531.1	302.08	-1403.9	1246.7	314.42
59	0.24167	-1157.9	1238.6	301.21	-1280.2	1476.4	474.85	-1297.1	1500.5	139.55	-1287.5	1789.2	319.09	-1179.9	1021.5	407.75	-1173.7	1031.9	175.77	NaN	NaN	NaN	NaN	NaN	NaN	-1244.5	906.64	474.27	-1264.9	924.52	109.18	-1281.7	1088	456.11	-1271.7	1112.2	148.29	-1396	1007.7	282.27	-1209.8	709.61	465.16	-1108.2	631.83	449.98	-1182.2	624.57	450.5	-1133	723.07	462.97	-1124.8	530.47	445.36	-1135	527.36	310.2	-1284	436.93	452.23	-1283.7	346.92	433.94	-1335.8	379.47	445.4	-1231.4	400.59	439.72	-1460	268.84	418.48	-1425.3	251.34	340.92	-1516.5	277.11	367.07	-1524.6	249.87	340.94	-1533.2	260.61	401.05	-1424.2	120.49	453.51	-1402.8	112.21	341.61	-1350.7	77.793	390.6	-1258.5	713.99	126.95	-1164.9	632.51	152.36	-1233.3	627.86	145.75	-1184.9	716.82	127.16	-1208.7	525.73	170.46	-1208.7	528.66	294.66	-1272.7	345.71	171.48	-1207.4	258.47	197.15	-1279.5	272.95	190.18	-1206.9	331.91	178.57	-1265.4	99.902	210.08	-1241.8	110.34	298.18	-1316.8	76.733	258.34	-1306.3	43.267	288.96	-1307.9	50.66	225.09	-1131.1	38.739	199.54	-1118.3	45.432	316.16	-1051.8	60.245	269.06	-1356	1531.6	301.89	-1399	1247.4	314.18
60	0.24583	-1153	1239.1	301.14	-1275	1477	474.73	-1292	1501.3	139.53	-1282.1	1789.8	319.08	-1174.9	1022.4	407.54	-1168.9	1032.4	175.52	NaN	NaN	NaN	NaN	NaN	NaN	-1239	907.56	474.33	-1260.5	924.89	109.16	-1276.7	1088.8	456.03	-1266.9	1112.7	148.2	-1391.1	1008.2	282.4	-1202.2	710.73	465.35	-1100.1	633.93	449.54	-1173.6	625.96	450.62	-1125.6	724.98	462.72	-1115.7	532.35	444.92	-1126.2	529.3	309.94	-1273.6	436.66	451.97	-1272.3	346.75	434	-1325	378.53	445.29	-1220.6	401.19	439.5	-1447.5	266.17	418.65	-1412.6	249.12	341.08	-1504.4	272.9	367.41	-1512.2	245.31	341.32	-1520.9	256.13	401.54	-1408.4	119.05	454.45	-1386.9	110.65	342.44	-1333.7	77.862	391.52	-1255.3	714.48	126.88	-1162.1	632.44	152.44	-1230.6	628.21	145.64	-1181.6	716.93	127.2	-1206.9	525.79	170.46	-1206.9	528.66	294.67	-1271.6	346	171.44	-1206.7	258.53	197.19	-1278.7	273.23	190.18	-1206	331.95	178.61	-1265.1	100.04	210.19	-1241.5	110.5	298.22	-1316.8	76.911	258.38	-1306.3	43.402	288.99	-1307.9	50.78	225.12	-1131.1	38.696	199.55	-1118.2	45.311	316.17	-1051.7	59.98	269.06	-1350.5	1532	301.71	-1394.1	1248	313.95
61	0.25	-1148.2	1239.7	301.07	-1269.8	1477.5	474.62	-1287	1501.9	139.52	-1276.8	1790.3	319.07	-1169.9	1023.1	407.35	-1164.1	1032.8	175.29	NaN	NaN	NaN	NaN	NaN	NaN	-1233.5	908.46	474.41	-1256.1	925.23	109.15	-1271.7	1089.4	455.96	-1262.2	1113.1	148.12	-1386.3	1008.7	282.53	-1194.6	711.83	465.56	-1092	636.01	449.08	-1165.2	627.33	450.74	-1118.3	726.86	462.44	-1106.8	534.2	444.45	-1117.6	531.24	309.68	-1263.2	436.28	451.69	-1261	346.49	434.07	-1314.2	377.48	445.18	-1209.8	401.74	439.3	-1434.8	263.28	418.83	-1399.7	246.71	341.26	-1492.1	268.47	367.78	-1499.6	240.54	341.72	-1508.3	251.41	402.06	-1392.5	117.45	455.34	-1370.8	109.01	343.23	-1316.6	77.884	392.34	-1252	714.94	126.83	-1159.4	632.36	152.53	-1227.9	628.54	145.55	-1178.2	717.01	127.26	-1205.1	525.83	170.47	-1205.1	528.65	294.7	-1270.5	346.29	171.41	-1205.9	258.57	197.25	-1277.9	273.5	190.19	-1205.1	331.99	178.67	-1264.7	100.19	210.32	-1241.3	110.65	298.27	-1316.8	77.086	258.43	-1306.2	43.542	289.03	-1307.8	50.897	225.16	-1131	38.662	199.56	-1118.1	45.176	316.17	-1051.6	59.713	269.07	-1345	1532.5	301.53	-1389.2	1248.6	313.73
62	0.25417	-1143.3	1240.2	301	-1264.6	1478	474.51	-1281.9	1502.6	139.5	-1271.5	1790.7	319.08	-1165	1023.9	407.18	-1159.3	1033.2	175.07	NaN	NaN	NaN	NaN	NaN	NaN	-1228	909.32	474.49	-1251.7	925.52	109.15	-1266.7	1090.1	455.89	-1257.4	1113.5	148.05	-1381.5	1009.2	282.67	-1187.1	712.91	465.8	-1084	638.04	448.6	-1156.8	628.67	450.87	-1111	728.7	462.16	-1098	536.03	443.95	-1109.1	533.15	309.43	-1252.9	435.78	451.4	-1249.5	346.13	434.15	-1303.5	376.31	445.05	-1198.9	402.22	439.12	-1422.1	260.17	419.03	-1386.8	244.14	341.45	-1479.6	263.81	368.18	-1486.9	235.58	342.13	-1495.5	246.46	402.6	-1376.5	115.7	456.18	-1354.6	107.29	343.96	-1299.3	77.861	393.05	-1248.8	715.38	126.8	-1156.6	632.27	152.64	-1225.3	628.84	145.49	-1174.8	717.06	127.32	-1203.3	525.85	170.5	-1203.4	528.62	294.75	-1269.3	346.58	171.39	-1205.2	258.6	197.34	-1277.1	273.77	190.2	-1204.1	332.01	178.76	-1264.4	100.34	210.47	-1241.1	110.8	298.33	-1316.8	77.259	258.49	-1306.2	43.682	289.07	-1307.7	51.011	225.2	-1131	38.638	199.57	-1118	45.027	316.18	-1051.5	59.445	269.09	-1339.5	1532.9	301.37	-1384.3	1249.1	313.51
63	0.25833	-1138.5	1240.6	300.92	-1259.4	1478.4	474.4	-1276.8	1503.2	139.49	-1266.2	1791.2	319.08	-1160	1024.6	407.02	-1154.6	1033.5	174.86	NaN	NaN	NaN	NaN	NaN	NaN	-1222.5	910.15	474.58	-1247.3	925.77	109.16	-1261.7	1090.7	455.82	-1252.6	1113.8	147.98	-1376.6	1009.6	282.82	-1179.6	713.97	466.05	-1076	640.04	448.09	-1148.5	629.99	451	-1103.8	730.5	461.85	-1089.2	537.81	443.44	-1100.8	535.03	309.19	-1242.7	435.17	451.1	-1238.1	345.69	434.24	-1292.7	375.01	444.93	-1188.2	402.64	438.97	-1409.2	256.86	419.25	-1373.7	241.41	341.65	-1467	258.96	368.61	-1473.9	230.44	342.56	-1482.4	241.3	403.16	-1360.4	113.82	456.96	-1338.2	105.52	344.65	-1282	77.795	393.67	-1245.6	715.8	126.78	-1153.8	632.16	152.76	-1222.6	629.11	145.45	-1171.5	717.09	127.4	-1201.5	525.86	170.55	-1201.7	528.59	294.81	-1268.1	346.87	171.37	-1204.5	258.62	197.46	-1276.3	274.04	190.21	-1203.2	332.03	178.87	-1264.1	100.5	210.64	-1240.9	110.94	298.4	-1316.8	77.428	258.55	-1306.2	43.819	289.11	-1307.7	51.122	225.25	-1130.9	38.622	199.59	-1117.9	44.863	316.2	-1051.4	59.176	269.12	-1334	1533.2	301.21	-1379.4	1249.6	313.31
